<?xml version="1.0" encoding="UTF-8" standalone="no"?>
<svg width="100.5" height="64">
    <g transform="translate(-17.5,-971.3888)" style="display:inline">
        <path d="m 20.750155,988.3888 c -1.751868,0 -3.1875,1.3686 -3.1875,3.0937 l 0,4.8438 5.4375,3.125 10.4375,-6.1875 2.03125,1.3437 -12.28125,7.25 -5.625,-3.0312 0,2.4687 5.4375,3.1563 10.4375,-6.1875 2.03125,1.3125 -12.28125,7.25 -5.625,-3.0313 0,2.4688 5.4375,3.1562 10.4375,-6.1875 2.03125,1.3125 -12.28125,7.25 -5.625,-3.0312 0,6.5 c 0,1.7251 1.435632,3.125 3.1875,3.125 l 23.65625,0 c 1.751868,0 3.15625,-1.3999 3.15625,-3.125 l 0,-23.7813 c 0,-1.7251 -1.404382,-3.0937 -3.15625,-3.0937 l -23.65625,0 z"/>
        <path d="m 68.508,999.25718 4.728,0 0,1.87202 -4.728,0 0,5.76 c -4e-6,0.624 0.048,1.144 0.144,1.56 0.096,0.4 0.239996,0.72 0.432,0.96 0.191995,0.224 0.431995,0.384 0.72,0.48 0.287994,0.096 0.623994,0.144 1.008,0.144 0.671993,0 1.207992,-0.072 1.608,-0.216 0.415992,-0.16 0.703991,-0.272 0.864,-0.336 l 0.432,1.848 c -0.224009,0.112 -0.616009,0.248 -1.176,0.408 -0.560007,0.176 -1.200007,0.264 -1.92,0.264 -0.848005,0 -1.552005,-0.104 -2.112,-0.312 -0.544003,-0.224 -0.984003,-0.552 -1.32,-0.984 -0.336002,-0.432 -0.576002,-0.96 -0.72,-1.584 -0.128002,-0.64 -0.192002,-1.376 -0.192,-2.208 l 0,-11.13602 2.232,-0.384 0,3.864"/>
        <path d="m 86.764125,1005.4972 c -1.3e-5,0.992 -0.144013,1.888 -0.432,2.688 -0.288012,0.8 -0.696012,1.488 -1.224,2.064 -0.512011,0.576 -1.12801,1.024 -1.848,1.344 -0.720009,0.304 -1.504008,0.456 -2.352,0.456 -0.848006,0 -1.632005,-0.152 -2.352,-0.456 -0.720004,-0.32 -1.344003,-0.768 -1.872,-1.344 -0.512002,-0.576 -0.912002,-1.264 -1.2,-2.064 -0.288001,-0.8 -0.432001,-1.696 -0.432,-2.688 -10e-7,-0.976 0.143999,-1.864 0.432,-2.664 0.287998,-0.816 0.687998,-1.512 1.2,-2.088 0.527997,-0.576 1.151996,-1.01601 1.872,-1.32002 0.719995,-0.31998 1.503994,-0.47998 2.352,-0.48 0.847992,2e-5 1.631991,0.16002 2.352,0.48 0.71999,0.30401 1.335989,0.74402 1.848,1.32002 0.527988,0.576 0.935988,1.272 1.224,2.088 0.287987,0.8 0.431987,1.688 0.432,2.664 m -2.328,0 c -1.1e-5,-1.408 -0.32001,-2.52 -0.96,-3.336 -0.624009,-0.832 -1.480008,-1.248 -2.568,-1.248 -1.088006,0 -1.952005,0.416 -2.592,1.248 -0.624004,0.816 -0.936004,1.928 -0.936,3.336 -4e-6,1.408 0.311996,2.528 0.936,3.36 0.639995,0.816 1.503994,1.224 2.592,1.224 1.087992,0 1.943991,-0.408 2.568,-1.224 0.63999,-0.832 0.959989,-1.952 0.96,-3.36"/>
        <path d="m 97.968375,1001.8972 c -0.27201,-0.224 -0.664009,-0.44 -1.176,-0.648 -0.512008,-0.208 -1.072008,-0.312 -1.68,-0.312 -0.640006,0 -1.192006,0.12 -1.656,0.36 -0.448005,0.224 -0.816005,0.544 -1.104,0.96 -0.288004,0.4 -0.496004,0.88 -0.624,1.44 -0.128004,0.56 -0.192004,1.16 -0.192,1.8 -4e-6,1.456 0.359996,2.584 1.08,3.384 0.719995,0.784 1.679994,1.176 2.88,1.176 0.607992,0 1.111991,-0.024 1.512,-0.072 0.415991,-0.064 0.73599,-0.128 0.96,-0.192 l 0,-7.896 m 0,-8.40002 2.232005,-0.384 0,18.26402 c -0.512017,0.144 -1.168016,0.288 -1.968005,0.432 -0.800009,0.144 -1.720009,0.216 -2.76,0.216 -0.960007,0 -1.824006,-0.152 -2.592,-0.456 -0.768004,-0.304 -1.424003,-0.736 -1.968,-1.296 -0.544002,-0.56 -0.968002,-1.24 -1.272,-2.04 -0.288001,-0.816 -0.432001,-1.728 -0.432,-2.736 -10e-7,-0.96 0.119999,-1.84 0.36,-2.64 0.255998,-0.8 0.623998,-1.488 1.104,-2.064 0.479997,-0.576 1.063996,-1.02401 1.752,-1.34402 0.703995,-0.31998 1.503994,-0.47998 2.4,-0.48 0.719992,2e-5 1.351992,0.096 1.896,0.288 0.559991,0.19201 0.97599,0.37601 1.248,0.552 l 0,-6.312"/>
        <path d="m 115.07663,1005.4972 c -2e-5,0.992 -0.14402,1.888 -0.432,2.688 -0.28802,0.8 -0.69602,1.488 -1.224,2.064 -0.51202,0.576 -1.12802,1.024 -1.848,1.344 -0.72001,0.304 -1.50401,0.456 -2.35201,0.456 -0.848,0 -1.632,-0.152 -2.352,-0.456 -0.72,-0.32 -1.344,-0.768 -1.872,-1.344 -0.512,-0.576 -0.912,-1.264 -1.19999,-2.064 -0.28801,-0.8 -0.43201,-1.696 -0.432,-2.688 -1e-5,-0.976 0.14399,-1.864 0.432,-2.664 0.28799,-0.816 0.68799,-1.512 1.19999,-2.088 0.528,-0.576 1.152,-1.01601 1.872,-1.32002 0.72,-0.31998 1.504,-0.47998 2.352,-0.48 0.848,2e-5 1.632,0.16002 2.35201,0.48 0.71998,0.30401 1.33598,0.74402 1.848,1.32002 0.52798,0.576 0.93598,1.272 1.224,2.088 0.28798,0.8 0.43198,1.688 0.432,2.664 m -2.328,0 c -2e-5,-1.408 -0.32002,-2.52 -0.96001,-3.336 -0.624,-0.832 -1.48,-1.248 -2.568,-1.248 -1.088,0 -1.952,0.416 -2.59199,1.248 -0.62401,0.816 -0.93601,1.928 -0.93601,3.336 0,1.408 0.312,2.528 0.93601,3.36 0.63999,0.816 1.50399,1.224 2.59199,1.224 1.088,0 1.944,-0.408 2.568,-1.224 0.63999,-0.832 0.95999,-1.952 0.96001,-3.36"/>
    </g>
</svg>
