<?xml version="1.0" encoding="UTF-8" standalone="no"?>
<svg width="30" height="30" xmlns="h/home/victor/Downloads/square-logo.icottp://www.w3.org/2000/svg" version="1.1">
    <g transform="translate(-17.5,-988.3888)" style="display:inline">
        <path d="m 20.750155,988.3888 c -1.751868,0 -3.1875,1.3686 -3.1875,3.0937 l 0,4.8438 5.4375,3.125 10.4375,-6.1875 2.03125,1.3437 -12.28125,7.25 -5.625,-3.0312 0,2.4687 5.4375,3.1563 10.4375,-6.1875 2.03125,1.3125 -12.28125,7.25 -5.625,-3.0313 0,2.4688 5.4375,3.1562 10.4375,-6.1875 2.03125,1.3125 -12.28125,7.25 -5.625,-3.0312 0,6.5 c 0,1.7251 1.435632,3.125 3.1875,3.125 l 23.65625,0 c 1.751868,0 3.15625,-1.3999 3.15625,-3.125 l 0,-23.7813 c 0,-1.7251 -1.404382,-3.0937 -3.15625,-3.0937 l -23.65625,0 z"/>
    </g>
</svg>
